<?xml version="1.0" encoding="UTF-8" standalone="no" ?>
<!-- Created with Inkscape (http://www.inkscape.org/) -->
<svg
  width="512"
  height="512"
  viewBox="0 0 512 512"
  version="1.1"
  id="svg1"
  xmlns="http://www.w3.org/2000/svg"
  xmlns:svg="http://www.w3.org/2000/svg"
>
  <style>
    #layer1 {
      fill: black;
      stoke: black;
    }
    @media (prefers-color-scheme: dark) {
      #layer1 {
        stroke: white;
        fill: white;
      }
    }
  </style>
  <defs id="defs1" />
  <g id="layer1">
    <g id="g1" transform="matrix(0.7870696,0,0,0.7870696,-95.809565,123.17272)">
      <g
        id="g401"
        transform="matrix(0.06908572,-0.1323377,0.1323377,0.06908572,127.84004,-92.340069)"
        style="display:inline"
      >
        <path
          class="st0"
          d="M 423.29,90.281 C 398.149,53.719 351.306,0 280.071,0 c -39.609,0 -86.875,0 -86.875,0 -3.578,0 -6.484,2.906 -6.484,6.469 v 3.063 c 0,3.563 -2.891,6.469 -6.469,6.469 H 159.68 c -3.578,0 -6.469,-2.906 -6.469,-6.469 V 6.469 C 153.211,2.906 150.305,0 146.727,0 H 96.431 C 89.29,0 83.478,5.813 83.478,12.969 v 64.344 c 0,7.172 5.813,12.969 12.953,12.969 h 50.297 c 3.578,0 6.484,-2.906 6.484,-6.469 v -3.047 c 0,-3.578 2.891,-6.484 6.469,-6.484 h 20.563 c 3.578,0 6.469,2.906 6.469,6.484 v 9.516 52.578 h 91.438 v -26.656 c 0,-14.313 11.609,-25.922 25.906,-25.922 0,0 6.641,0 7.234,0 48,0 73.156,10.281 97.156,20.563 15.281,6.561 27.421,-6.845 14.843,-20.564 z"
          id="path397"
        />

        <path
          class="st0"
          d="m 266.056,512 c 5.234,0 10.234,-2.109 13.906,-5.844 3.656,-3.75 5.641,-8.813 5.531,-14.031 l -7.344,-321.844 h -91.438 l -7.328,321.844 c -0.125,5.219 1.875,10.281 5.531,14.031 3.656,3.734 8.672,5.844 13.891,5.844 z"
          id="path399"
        />

	  </g>
      <g
        style="display:inline;"
        id="g461"
        transform="matrix(3.5559033,-2.2072263,2.2072263,3.5559033,120.79278,-76.034355)"
      >
        <path
          d="M 0,1 1,0 4.081,2.2 A 1,1 0 0 1 4.5,3.015 v 0.07 A 1,1 0 0 0 4.793,3.793 L 10.5,9.5 11.414,9.195 a 1,1 0 0 1 1.023,0.242 l 3.356,3.356 a 1,1 0 0 1 0,1.414 l -1.586,1.586 a 1,1 0 0 1 -1.414,0 L 9.437,12.437 A 1,1 0 0 1 9.195,11.414 L 9.5,10.5 3.793,4.793 A 1,1 0 0 0 3.086,4.5 H 3.015 A 1,1 0 0 1 2.201,4.081 Z m 11.354,9.646 a 0.5006316,0.5006316 0 0 0 -0.708,0.708 l 3,3 a 0.5006316,0.5006316 0 0 0 0.708,-0.708 z"
          id="path452"
        />
      </g>
      <g
        id="g636"
        transform="matrix(-0.15748777,-0.03229754,-0.03229754,0.15748777,290.75838,-141.19674)"
        style="display:inline"
      >
        <path
          class="st0"
          d="m 50.448,345.976 c -13.915,13.916 -13.915,36.484 0,50.4 L 155.63,501.548 c 13.914,13.932 36.484,13.932 50.4,0.017 L 283.075,424.511 127.494,268.93 Z m 128.484,118.66 c -3.121,3.12 -8.209,3.137 -11.33,0.008 l -80.24,-80.24 c -3.129,-3.12 -3.12,-8.21 0,-11.338 l 33.504,-33.496 91.57,91.562 z"
          id="path632"
        />

        <polygon
          class="st0"
          points="380.887,246.665 366.288,217.163 404.782,202.786 390.174,173.26 428.661,158.891 414.078,129.38 452.548,115.004 437.965,85.493 471.988,75.571 396.416,0 141.566,254.858 275.516,388.809 309.193,378.369 294.619,348.841 333.105,334.456 318.514,304.929 357,290.552 342.401,261.042 "
          id="polygon634"
        />

	  </g>
      <rect
        style="display:inline;stroke-width:0.264583"
        id="rect699"
        width="7.3692088"
        height="8.4096546"
        x="68.85231"
        y="139.07687"
        transform="matrix(3.7795276,0,0,3.7795276,-21.45737,-628.59101)"
      />
      <rect
        style="display:inline;stroke-width:0.264583"
        id="rect753"
        width="4.4167218"
        height="2.8590093"
        x="75.807709"
        y="144.34819"
        transform="matrix(3.7795276,0,0,3.7795276,-21.45737,-628.59101)"
      />
      <rect
        style="display:inline;stroke-width:0.264583"
        id="rect755"
        width="4.4204173"
        height="2.4673641"
        x="59.841522"
        y="143.61182"
        transform="matrix(3.7795276,0,0,3.7795276,-21.45737,-628.59101)"
      />
      <rect
        style="display:inline;stroke-width:0.264583"
        id="rect757"
        width="3.5576894"
        height="2.7126966"
        x="65.770882"
        y="141.35358"
        transform="matrix(3.7795276,0,0,3.7795276,-21.45737,-628.59101)"
      />
      <rect
        style="display:inline;stroke-width:0.264583"
        id="rect759"
        width="3.6762915"
        height="0.49399009"
        x="58.302654"
        y="153.34235"
        transform="matrix(3.7795276,0,0,3.7795276,-21.45737,-628.59101)"
      />
      <ellipse
        style="stroke-width:0.999999"
        id="path1028-3"
        cx="211.98383"
        cy="-60.181339"
        rx="6.0780339"
        ry="4.6348066"
      />
      <path
        id="path175"
        style="stroke-width:1.43542"
        d="m 174.7731,-143.75899 c 0.3402,1.41675 0.34008,2.24738 0.70899,2.85743 4.43258,7.35655 9.18247,14.39543 15.60742,20.32226 6.39049,5.89674 13.41137,10.85888 20.49804,15.79102 6.36609,4.42681 12.63888,8.989188 19.05665,13.345698 3.27419,2.226331 6.74736,4.157745 10.16796,6.160176 5.4058,3.167963 10.82367,6.324548 16.2754,9.41212 1.56317,0.884221 3.268,1.522772 4.86132,2.371087 -3.7608,-1.475603 -7.5732,-2.821796 -11.26367,-4.466797 -6.35461,-2.834948 -12.61906,-5.851314 -18.92774,-8.79103 -10.05511,-4.679471 -19.98803,-9.658205 -30.19531,-13.968754 -14.103,-5.9441 -28.40488,-11.41331 -42.65429,-16.99998 -1.6694,-0.65597 -3.54138,-0.82839 -5.34571,-1.05664 -0.6445,-0.0816 -1.34695,0.32315 -2.02734,0.50389 0.21676,0.74925 0.22726,1.67667 0.68945,2.2207 1.05934,1.2531 2.28399,2.38427 3.53711,3.45509 9.22402,7.88334 19.619,13.79622 30.61719,18.863281 9.14793,4.217235 17.96989,9.123515 27.00586,13.576177 3.10481,1.528743 6.44114,2.581682 9.66797,3.853493 -0.0589,0.233952 -0.12291,0.463332 -0.1875,0.697285 -0.63877,-0.152315 -1.28862,-0.264567 -1.91016,-0.451163 -15.19679,-4.650746 -30.32944,-9.516321 -45.61523,-13.861341 -6.57136,-1.868901 -13.43994,-2.753046 -20.20508,-3.876964 -1.26461,-0.213922 -2.69471,0.559823 -4.04687,0.882822 0.71484,1.136844 1.25407,2.452686 2.1914,3.361323 1.1713,1.136844 2.61254,2.020686 4.0293,2.863294 14.90397,8.843603 31.17964,14.577638 47.20898,20.890621 3.49094,1.376542 6.98718,2.752214 10.48243,4.123049 -0.0761,0.275527 -0.15255,0.550564 -0.23437,0.826167 -1.39379,-0.251339 -2.78199,-0.498822 -4.17578,-0.75001 -8.62114,-1.534488 -17.22321,-3.169663 -25.87305,-4.539061 -1.89189,-0.298583 -3.94707,0.217701 -5.89063,0.55079 -0.78374,0.134929 -1.47586,0.785311 -2.75195,1.505878 2.27227,1.821581 3.91777,3.676157 5.98047,4.695307 9.27138,4.597644 18.65254,8.954872 28,13.40039 0.40335,0.19389 0.79144,0.439446 1.3125,0.726539 -2.29524,0.608617 -4.36772,1.159975 -6.75195,1.79297 5.62254,7.63646 13.16003,11.889714 20.56249,16.251969 1.75696,1.036346 4.01852,1.170935 5.92188,2.007798 1.30049,0.574186 2.37724,1.64451 3.55859,2.500007 -2.12011,2.751722 -1.72136,4.708308 0.91407,7.056642 5.42301,4.83738 11.78467,8.1011151 18.09765,11.5331908 2.14452,1.1655685 3.42493,3.87605671 5.19336,5.7851717 1.58758,1.7153008 3.25792,3.3683528 5.00196,4.9257827 1.45838,1.3062426 3.08112,2.4354898 4.63281,3.6484158 -3.69477,4.363691 -1.90486,7.064202 1.16406,9.576189 2.11438,1.728265 4.16549,3.542778 6.37891,5.128895 3.17946,2.283779 7.04405,3.041801 10.66992,2.50783 0.30433,-0.04611 0.59171,-0.07068 0.87305,-0.08806 1.90911,4.578973 5.8675,8.203275 10.62304,9.638702 2.50625,2.764611 5.49455,5.130671 6.80079,8.861329 0.60287,1.728227 0.94771,3.280592 0.68359,5.201159 -0.26986,1.967963 0.89702,4.117267 0.70898,6.121097 -0.35743,3.829719 2.73707,3.822463 4.84571,4.976541 0.5799,0.315969 1.18837,0.586621 1.80273,0.832063 2.51198,1.01915 3.62466,2.781997 2.82227,5.464819 -0.47944,1.593298 -0.40493,2.869266 1.13672,3.876964 2.1603,1.411011 4.25328,2.939906 6.39062,4.392567 1.36508,0.925833 2.71692,1.869506 4.15234,2.671899 0.90145,0.503849 1.93311,1.007018 2.9336,1.064429 1.77992,0.106204 2.43651,1.00766 2.17383,2.572271 -0.35743,2.131578 0.31445,3.653933 1.74414,5.30468 0.90144,1.042091 1.1469,2.976189 1.07226,4.480479 -0.25837,5.07137 1.11379,6.923565 6.02149,8.292963 2.26078,0.63159 4.42061,1.70532 5.24023,4.38671 0.79666,2.61819 2.14368,4.57772 5.3418,5.05859 2.85218,0.42777 4.26908,2.86409 4.17578,5.61721 -0.10481,3.13928 2.03659,4.87283 3.75193,6.74608 1.52871,1.67512 2.27921,2.9339 1.41797,5.30665 -1.1828,3.26702 0.71497,6.2832 1.79297,9.2832 0.1406,0.39189 1.42265,0.37492 2.31836,0.58594 -1.25885,2.23782 -0.46654,3.44938 1.92775,4.45704 2.39569,1.00766 4.48566,2.5056 5.09571,5.59177 0.82533,4.18137 3.58991,6.64759 7.97654,7.12698 0.78372,0.0877 1.52232,0.56943 2.56445,0.97852 -1.2531,0.49236 -2.19561,0.86544 -3.13867,1.23436 0.0227,0.22828 0.0472,0.45781 0.0703,0.6875 1.05936,-0.034 2.14163,-0.22224 3.16796,-0.0643 1.06507,0.16366 2.07299,0.67189 3.10938,1.02928 -0.43926,0.79669 -0.82439,1.63344 -1.33399,2.37699 -0.41624,0.60861 -1.03147,1.08446 -1.47072,1.68162 -1.22442,1.66364 -0.24416,4.25779 1.76368,4.68556 0.3976,0.0877 0.82397,0.034 1.24025,0.0525 5.40578,0.24529 5.27251,0.23887 4.96679,5.72655 -0.32164,5.73309 1.73318,10.88886 4.7246,15.63867 0.50955,0.80814 2.03743,0.91298 2.98049,1.52734 0.88422,0.57993 1.82279,1.27922 2.34958,2.15626 0.84261,1.40531 1.45868,2.96251 2.01563,4.51563 0.72631,2.02681 1.2407,3.74797 4.07421,4.09962 1.10098,0.13492 1.97492,2.89277 2.77735,4.54492 1.41676,2.92826 2.70425,5.92206 4.04493,8.88476 0.36321,0.79668 0.8956,1.5561 1.06639,2.38866 0.66172,3.32587 2.23083,4.93066 5.46486,5.26367 1.89762,0.19389 3.26823,0.7208 4.80272,2.2969 1.86316,1.90907 4.93614,2.63006 7.4668,3.90039 1.40526,0.70337 2.80618,1.43955 4.16409,2.23045 3.04022,1.76414 6.02468,3.61489 9.08788,5.33594 2.17322,1.21867 3.07608,3.27904 2.64257,6.07812 -0.34016,2.19617 -1.3592,4.17563 -0.8496,6.69336 0.26985,1.31199 -1.94079,3.12918 -3.36329,5.21484 -0.55692,-3.00575 -2.13562,-4.31743 -4.25001,-3.48631 -3.77227,1.48709 -7.79006,0.97171 -11.57812,1.99804 -3.39047,0.91869 -6.77749,1.85738 -10.16795,2.78321 -0.15799,0.0457 -0.32958,0.16932 -0.4746,0.1406 -6.01013,-1.12392 -11.65999,1.20605 -17.48636,1.82615 -6.89866,0.73206 -13.7692,1.72755 -20.66211,2.53712 -8.31682,0.97176 -16.65676,1.76792 -24.9492,2.8574 -3.66032,-1.46558 -8.017,0.73709 -9.41796,4.29691 -1.54595,3.93018 0.51042,8.00077 4.21093,9.68164 1.21867,0.5512 2.44292,1.10698 3.66016,1.65819 1.15408,6.31298 6.50116,11.27664 12.65623,12.38476 -0.84257,0.5512 -1.65271,1.13843 -2.38477,1.79297 -1.19573,1.0665 -2.93892,2.50741 -1.62693,4.43947 1.22437,1.80434 2.70489,3.70118 5.4336,2.48825 1.07229,1.2531 0.16327,4.80986 2.64646,3.34571 3.94741,1.96078 7.26331,3.61255 10.70117,5.3164 0.34582,3.28569 1.56937,4.37991 6.64648,5.35744 1.86172,0.35755 3.77817,0.47399 5.6758,0.58594 1.88039,0.11036 3.7717,0.0824 6.06837,0.11717 -0.57415,0.78516 -0.98007,1.62803 -1.6289,2.17776 -3.2383,2.73593 -3.32572,5.39989 -0.20523,8.18748 0.74929,0.66746 1.51733,1.34793 2.15036,2.12304 2.20192,2.69287 2.18532,2.71177 4.91407,2.68165 0.41053,0.89571 0.56258,2.04861 1.13673,2.32422 2.2608,1.09519 4.39222,2.92856 7.25586,1.82619 0.36321,-0.1406 1.10158,0.008 1.31834,0.28724 1.00766,1.28757 1.67966,2.928 2.89258,3.94141 1.08374,0.90145 2.69469,1.22419 4.11719,1.65626 0.59857,0.18217 1.44159,0.20939 1.95118,-0.0763 3.07469,-1.77419 6.47097,-0.22678 9.62892,-1.01757 0.19238,-0.0472 0.43956,0.13342 0.80273,0.24983 -0.55695,0.5627 -1.03703,1.04421 -2.0332,2.0332 4.06511,0.73209 7.46612,2.11457 11.1738,0.72654 0.66172,-0.24567 1.45357,-0.67922 2.04495,-0.51561 2.28374,0.63878 4.50902,1.48313 6.71093,2.23242 -0.40479,0.25852 -1.05192,0.66213 -2.08399,1.30662 2.79908,2.06702 5.70281,2.72167 8.7832,2.95706 1.11247,0.082 2.25525,0.1406 3.32032,0.43359 2.74741,0.75504 5.65682,-0.19427 7.61329,-2.9043 6.48378,-9.00151 13.15975,-17.87947 19.19138,-27.17382 2.53066,-3.89431 5.69911,-5.89142 9.86328,-6.47853 6.9388,-0.9775 13.41204,-3.22639 19.74222,-6.10155 1.2833,-0.58564 2.56474,-0.92603 4.29297,0.0525 1.87469,1.06511 4.4394,0.93018 6.67578,1.31055 -0.7852,2.41436 1.06031,4.11001 2.19141,6.07227 0.32882,0.5684 0.8615,1.42359 0.65624,1.83983 -1.40531,2.88665 0.42701,5.32978 0.98827,7.9121 0.11754,0.54546 1.00675,0.98839 1.62111,1.35156 1.42394,0.83826 2.91198,1.55966 4.33592,2.39649 2.06128,1.21867 3.16724,2.92259 3.27345,5.459 0.0401,0.94306 1.08234,2.38238 1.95507,2.6465 2.64692,0.80383 3.60967,2.73433 4.48241,5.01951 0.33297,0.8713 1.12841,1.8898 1.96097,2.20702 6.32447,2.41871 12.69112,4.74372 19.08593,6.96291 1.92631,0.6689 4.00724,0.87265 6.00389,1.35352 0.67608,0.16215 1.7672,0.4215 1.86913,0.83203 0.64161,2.70006 3.02143,2.85702 4.97072,3.50585 2.47325,0.82537 5.0019,1.34309 5.28321,4.69338 0.0416,0.50812 1.14456,1.10049 1.85938,1.35742 2.40578,0.87277 4.88867,1.52337 7.27147,2.44921 0.73206,0.28006 1.27794,1.12463 1.83201,1.77343 0.98468,1.16126 1.7,2.6993 2.90431,3.49024 5.03833,3.29858 10.45939,5.58289 16.67187,5.125 0.81532,-0.059 1.61276,-0.32957 2.61328,-0.54493 0.0529,0.83686 0.0952,1.6114 0.14665,2.42385 0.71486,0.11754 1.40632,0.23282 2.26756,0.37493 -0.21808,0.75503 -0.38751,1.35908 -0.54686,1.91603 0.79952,1.58612 3.78444,1.44015 7.22657,-0.38283 -0.50237,1.58759 -0.54274,2.78124 1.61329,2.56449 2.4531,-0.25134 3.66992,0.69728 3.66992,3.19921 0,2.73449 2.12255,3.77745 3.83789,4.56836 1.05358,0.48661 3.05095,-0.47422 4.3457,-1.24218 1.30624,-0.77224 2.27002,-2.11261 3.58201,-3.38869 0.78516,3.17514 -1.82003,4.78454 -3.25977,6.9922 0.95312,0.6316 1.63196,1.35795 2.44728,1.57614 2.05554,0.54403 4.2178,0.7378 4.48048,3.59573 0.0189,0.19389 2.05591,0.5966 2.87694,0.2521 2.82924,-1.18995 5.24493,-1.00759 6.25977,1.88477 1.47991,4.22733 5.90128,5.62953 7.77736,9.33007 0.3617,0.72056 1.63423,0.98808 2.63474,1.55077 -0.30576,0.22262 -0.64376,0.48091 -0.98827,0.71486 -1.39952,0.93736 -1.13,1.81089 0.26948,2.25585 3.87708,1.22442 7.65351,3.0192 11.95117,1.97851 0.55264,-0.13493 1.73564,0.61444 1.9883,1.21875 1.62633,3.91294 4.4262,6.40082 8.40234,7.77736 0.66747,0.22828 1.2895,1.21372 1.52345,1.96875 0.82681,2.68857 1.27832,5.50496 2.25585,8.1289 0.59139,1.5761 1.86819,2.89878 2.89452,4.29687 0.79094,1.08374 1.4683,2.36194 2.51758,3.10548 2.75316,1.94929 5.98488,1.60241 9.10548,1.26365 1.2847,-0.13493 2.50046,-0.84151 3.78516,-0.9707 0.84117,-0.0892 1.91467,0.15497 2.58788,0.65432 2.25937,1.67372 4.39472,3.52694 6.57226,5.31836 0.18217,0.15231 0.43117,0.32768 0.47853,0.53125 1.19425,5.10149 6.4783,6.29049 9.32617,9.79294 1.20578,1.48135 2.0013,3.29197 3.13671,4.83791 0.49379,0.66747 1.4186,0.99364 2.09181,1.53906 0.72061,0.58424 1.70986,1.12438 2.01563,1.90235 2.30672,6.03882 5.56138,11.4737 10.38867,15.76562 2.49479,2.22059 5.00731,4.43985 8.58006,5.38866 1.75264,0.46224 2.95351,3.11687 4.33009,4.83791 0.97001,1.2172 1.90651,2.46414 2.84375,3.71093 h 5.74413 V 346.5355 c -0.777,-0.69883 -1.56541,-1.38512 -2.36523,-2.0547 -3.79812,-3.18089 -8.33235,-5.54532 -12.73047,-7.92382 -4.79142,-2.5895 -9.82178,-4.72781 -14.70508,-7.14648 -5.93261,-2.93401 -11.8537,-5.88998 -17.72459,-8.95313 -6.57422,-3.43355 -13.0735,-7.00479 -19.6348,-10.47852 -6.06754,-3.21392 -12.19944,-6.30194 -18.23826,-9.57615 -8.05701,-4.36796 -16.07452,-8.82489 -24.06837,-13.31055 -6.92447,-3.88282 -13.84252,-7.79093 -20.66797,-11.83593 -2.9828,-1.76844 -5.72103,-3.94197 -8.59763,-5.89845 -2.56509,-1.74546 -5.16457,-3.44178 -7.75979,-5.17579 1.86747,-2.31818 3.6725,-4.17517 5.01173,-6.3125 2.02681,-3.23833 2.74141,-6.76331 0.70311,-10.3418 -0.24114,-0.42203 -0.60813,-0.9436 -0.99999,-1.24218 -6.39481,-10.57618 -15.61372,-18.22504 -26.90041,-23.41406 -6.44217,-2.96274 -13.15895,-5.31224 -20.0332,-7.03907 -2.75312,-1.61628 -5.59249,-3.2747 -8.48632,-4.83787 -4.97371,-2.69284 -9.61629,-5.65795 -13.02539,-10.38478 -1.34611,-1.86701 -3.5537,-3.10938 -5.74219,-4.95311 v -0.002 -0.002 c 0.004,-0.0673 -0.0937,-0.85622 -0.53515,-1.16795 -2.02106,-1.4397 -4.11813,-2.78321 -6.3086,-4.21289 -0.57271,-1.16553 -1.48066,-1.84415 -2.63474,-2.43557 -0.58564,-0.29858 -1.1723,-0.60185 -1.76368,-0.90039 -0.32882,-0.30425 -0.67763,-0.60862 -1.02932,-0.93162 -2.52491,-2.278 -4.63763,-5.03187 -6.82809,-7.66016 -4.7082,-5.64548 -9.6008,-11.15667 -13.96876,-17.06056 -6.0503,-8.16899 -11.90041,-16.50266 -17.45117,-25.01756 -8.26371,-12.67907 -16.57342,-25.36108 -24.15821,-38.449247 -8.19338,-14.148964 -15.44988,-28.841991 -23.39063,-43.144517 -1.91482,-3.44931 -4.81992,-6.384227 -7.4668,-9.382828 -2.84647,-3.21532 -5.79247,-6.372397 -8.93749,-9.294917 C 436.83972,31.37963 431.89005,26.69415 426.54451,22.547214 414.4913,13.199762 403.54677,2.5719953 391.76912,-7.0797466 384.35376,-13.153032 377.14027,-19.531476 369.30428,-25.01334 c -13.15418,-9.201034 -26.67637,-17.862539 -40.14062,-26.617172 -12.02308,-7.818747 -23.38107,-16.484977 -34.03906,-26.06642 -7.85893,-7.06371 -15.72967,-14.125946 -23.38477,-21.41212 -5.6168,-5.346938 -10.94064,-11.009798 -16.31055,-16.609358 -7.32638,-7.63646 -14.564,-15.356 -21.8789,-23.00391 -0.74929,-0.78516 -1.75653,-1.33032 -2.64649,-1.98633 -0.25119,0.12926 -0.50466,0.25172 -0.75586,0.38086 0.19378,1.21868 0.15735,2.53002 0.61524,3.63674 3.40338,8.24648 6.36701,16.78005 12.12305,23.77342 4.66224,5.66271 9.31615,11.43152 14.68749,16.380849 8.10438,7.461317 16.82715,14.254527 25.28321,21.333997 0.46794,0.3919 0.87773,0.843478 1.05859,1.687484 -0.62728,-0.245291 -1.31243,-0.405619 -1.88086,-0.75583 -11.61255,-7.204384 -23.30231,-14.289751 -34.78711,-21.705109 -9.45798,-6.101971 -18.72205,-12.514621 -27.95898,-18.945301 -6.10771,-4.2517 -11.89398,-8.97248 -18.06055,-13.13087 -7.19145,-4.84887 -14.62561,-9.34084 -21.99219,-13.91407 -1.14116,-0.70911 -2.53081,-1.03075 -4.46289,-1.79297 z m 450.19533,402.08988 c 0.26041,-0.0151 0.53079,-0.0113 0.80662,0.004 0.31522,0.0189 0.63954,0.0571 0.96681,0.11716 -0.74786,1.58759 -1.46793,3.10409 -2.50001,5.27732 -1.06507,-1.38803 -2.35011,-2.30646 -2.40038,-3.29688 -0.068,-1.20669 1.30432,-2.00769 3.12696,-2.10153 z"
      />
      <rect
        style="stroke-width:0.999999"
        id="rect918"
        width="24.489485"
        height="20.418842"
        x="262.71783"
        y="-83.431931"
      />
      <rect
        style="stroke-width:0.999999"
        id="rect972"
        width="13.266243"
        height="2.8710942"
        x="215.52802"
        y="-77.12162"
      />
      <ellipse
        style="stroke-width:0.999999"
        id="path1028"
        cx="205.26762"
        cy="-46.402637"
        rx="6.0780339"
        ry="4.6348066"
      />
    </g>
  </g>
</svg>
