<?xml version="1.0" encoding="UTF-8" standalone="no"?>
<!-- Created with Inkscape (http://www.inkscape.org/) -->

<svg
   width="128mm"
   height="128mm"
   viewBox="0 0 128 128"
   version="1.1"
   id="svg1"
   xmlns="http://www.w3.org/2000/svg"
   xmlns:svg="http://www.w3.org/2000/svg">
  <style>
    #layer1 {
      fill: black;
      stoke: black;
    }
    @media (prefers-color-scheme: dark) {
      #layer1 {
        stroke: white;
        fill: white;
      }
    }
  </style>
  <defs
     id="defs1" />
  <g
     id="layer1">
    <g
       id="g253"
       transform="matrix(0.37318601,0,0,0.37318601,-28.141213,-33.982586)">
      <path
         d="m 239.20117,180.28711 -51.75781,39.6875 c 0.037,0.0396 0.0729,0.0793 0.10937,0.11914 1.03813,1.13755 1.54776,1.99222 0.96289,3.60352 -0.80323,2.2186 0.48475,4.26742 1.2168,6.30468 0.0955,0.26614 0.96596,0.25514 1.57422,0.39844 -0.85487,1.51967 -0.31538,2.3411 1.31055,3.02539 1.62689,0.68429 3.0447,1.70304 3.45898,3.79883 0.56047,2.83951 2.43906,4.51429 5.41797,4.83984 0.53221,0.0596 1.03255,0.38626 1.74023,0.66407 -0.85095,0.33436 -1.49042,0.58736 -2.13085,0.83789 0.0154,0.15502 0.0332,0.31081 0.0488,0.46679 0.7194,-0.0231 1.45342,-0.15026 2.15039,-0.043 0.72328,0.11114 1.40754,0.45651 2.11133,0.69922 -0.29829,0.54102 -0.56019,1.10834 -0.90625,1.61328 -0.28266,0.4133 -0.69975,0.73705 -0.99804,1.14258 -0.83149,1.12975 -0.16624,2.89115 1.19726,3.18164 0.27001,0.0596 0.55911,0.0226 0.8418,0.0352 3.671,0.16657 3.58066,0.16205 3.37304,3.88867 -0.21842,3.89327 1.17756,7.39557 3.20899,10.62109 0.34604,0.54881 1.38302,0.61991 2.02344,1.03711 0.60047,0.39383 1.23796,0.8673 1.5957,1.46289 0.5722,0.95434 0.99092,2.0117 1.36914,3.06641 0.49323,1.37638 0.84338,2.54636 2.76758,2.78516 0.74766,0.0916 1.33984,1.964 1.88476,3.08593 0.96211,1.98855 1.83762,4.02128 2.74805,6.03321 0.24666,0.54102 0.60862,1.05767 0.72461,1.62304 0.44936,2.25856 1.51475,3.34807 3.71094,3.57422 1.28865,0.13166 2.21771,0.49024 3.25976,1.56055 1.26525,1.29643 3.35373,1.78577 5.07227,2.64844 0.95429,0.47765 1.90403,0.97658 2.82617,1.51367 2.06457,1.198 4.09171,2.45431 6.17188,3.62305 1.47582,0.82759 2.08931,2.22808 1.79492,4.1289 -0.231,1.49139 -0.92223,2.83515 -0.57617,4.54492 0.18326,0.89095 -1.31916,2.12468 -2.28516,3.54102 -0.37819,-2.04116 -1.44892,-2.93159 -2.88477,-2.36719 -2.56171,1.00986 -5.29085,0.66045 -7.86328,1.35742 -2.30242,0.62387 -4.60187,1.25996 -6.90429,1.88868 -0.10728,0.031 -0.22379,0.11518 -0.32227,0.0957 -4.08141,-0.76324 -7.91838,0.81912 -11.875,1.24023 -4.68479,0.49713 -9.35036,1.17289 -14.03125,1.72266 -5.64785,0.65991 -11.31207,1.20155 -16.94336,1.94141 -2.48568,-0.99526 -5.4451,0.50053 -6.39648,2.91797 -1.04983,2.66893 0.34835,5.43275 2.86132,6.57421 0.82758,0.37431 1.65777,0.75265 2.48438,1.12696 0.78372,4.28707 4.41586,7.65764 8.5957,8.41015 -0.57218,0.37432 -1.12396,0.77232 -1.62109,1.2168 -0.81201,0.72426 -1.99448,1.7036 -1.10352,3.01563 0.83146,1.22531 1.83643,2.51313 3.68946,1.68945 0.72818,0.85096 0.11057,3.26577 1.79687,2.27148 2.68064,1.33154 4.93297,2.45427 7.26758,3.61133 0.23485,2.23127 1.06586,2.97289 4.51367,3.63672 1.26427,0.24281 2.56486,0.32241 3.85352,0.39844 1.27695,0.0749 2.56146,0.0565 4.12109,0.0801 -0.38989,0.53319 -0.66486,1.10519 -1.10547,1.47851 -2.19909,1.85793 -2.25971,3.66753 -0.14062,5.56055 0.50883,0.45327 1.03105,0.91503 1.46093,1.4414 1.4953,1.8287 1.48484,1.84078 3.3379,1.82032 0.27878,0.60827 0.38158,1.39097 0.77148,1.57812 1.53528,0.74374 2.98307,1.98885 4.92773,1.24024 0.24666,-0.0955 0.74734,0.005 0.89454,0.19531 0.68429,0.87438 1.14116,1.98954 1.96484,2.67773 0.73595,0.61217 1.82892,0.83158 2.79492,1.125 0.40648,0.12371 0.98011,0.14123 1.32617,-0.0527 2.08798,-1.20483 4.39455,-0.15439 6.53907,-0.69141 0.13064,-0.0321 0.29829,0.0909 0.54492,0.16992 -0.37822,0.38212 -0.70437,0.70925 -1.38086,1.38086 2.76057,0.49716 5.07005,1.43673 7.58789,0.49414 0.44936,-0.16683 0.98707,-0.46267 1.38867,-0.35156 1.55086,0.43378 3.06135,1.00875 4.55664,1.51758 -0.27489,0.17556 -0.71319,0.44906 -1.41406,0.88672 1.90083,1.40369 3.87299,1.84796 5.96484,2.00781 0.75546,0.0557 1.53063,0.096 2.25391,0.29492 1.86573,0.51274 3.8413,-0.1323 5.16992,-1.97265 4.40305,-6.11282 8.93719,-12.14145 13.0332,-18.45313 1.71854,-2.64458 3.86943,-4.00169 6.69727,-4.40039 4.71205,-0.6638 9.1075,-2.19009 13.40625,-4.14258 0.87147,-0.3977 1.7424,-0.62943 2.91601,0.0352 1.27308,0.7233 3.01451,0.63231 4.53321,0.89062 -0.53322,1.63956 0.72016,2.7905 1.48828,4.12305 0.22329,0.38599 0.5847,0.96733 0.44531,1.25 -0.95433,1.96029 0.29074,3.61942 0.67188,5.37305 0.0798,0.37041 0.68436,0.67135 1.10156,0.91797 0.96698,0.56926 1.97638,1.05867 2.94336,1.62695 1.39978,0.82758 2.15054,1.98459 2.22265,3.70703 0.0272,0.64042 0.73547,1.61753 1.32813,1.79688 1.79749,0.54587 2.45226,1.85637 3.04492,3.4082 0.22612,0.59169 0.7647,1.28459 1.33008,1.5 4.29487,1.64252 8.61831,3.2215 12.96094,4.72851 1.30814,0.45425 2.72222,0.59142 4.07812,0.91797 0.45912,0.11011 1.20031,0.28762 1.26953,0.56641 0.43572,1.83358 2.05126,1.94025 3.375,2.38086 1.67955,0.5605 3.39685,0.91041 3.58789,3.18555 0.0282,0.34506 0.7763,0.74739 1.26172,0.92187 1.63374,0.59269 3.32133,1.03534 4.93946,1.66406 0.49713,0.19019 0.86787,0.76449 1.24414,1.20508 0.66868,0.78859 1.15482,1.83202 1.97265,2.36914 3.42148,2.24002 7.1015,3.79142 11.32032,3.48047 0.55367,-0.04 1.09595,-0.2229 1.77539,-0.36914 0.0359,0.5683 0.0647,1.09281 0.0996,1.64453 0.48545,0.0798 0.9542,0.15936 1.53906,0.25586 -0.1481,0.51274 -0.26289,0.92257 -0.3711,1.30078 0.54295,1.07712 2.5707,0.9782 4.90821,-0.25976 -0.34116,1.07811 -0.36843,1.88743 1.0957,1.74023 1.66587,-0.17068 2.49219,0.4748 2.49219,2.17383 0,1.85696 1.4406,2.56447 2.60547,3.10156 0.71547,0.33046 2.07192,-0.32223 2.95117,-0.84375 0.88706,-0.52441 1.54069,-1.43421 2.43164,-2.30078 0.53319,2.1562 -1.23518,3.24885 -2.21289,4.74805 0.64726,0.42891 1.10844,0.92214 1.66211,1.07031 1.39589,0.36944 2.86459,0.50063 3.04297,2.44141 10e-5,0.001 0.002,0.006 0.002,0.008 0,0 0,0.002 0,0.002 5.8e-4,0.001 0.003,0.005 0.004,0.006 0.11116,0.13621 1.4113,0.38115 1.94726,0.15625 1.92131,-0.80807 3.5628,-0.68486 4.25195,1.2793 1.005,2.87073 4.00723,3.82296 5.28125,6.33594 0.24562,0.48933 1.10963,0.67256 1.78907,1.05468 -0.20764,0.15117 -0.43793,0.32551 -0.67188,0.48438 -0.9504,0.63655 -0.76677,1.22908 0.1836,1.53125 2.63287,0.83149 5.19674,2.05047 8.11523,1.34375 0.37529,-0.0916 1.17998,0.41774 1.35156,0.82812 1.10442,2.65723 3.00493,4.34645 5.70508,5.28125 0.45326,0.15502 0.87629,0.82516 1.03516,1.33789 0.56148,1.82578 0.86742,3.73765 1.53125,5.51953 0.4016,1.07031 1.26787,1.96855 1.96484,2.91797 0.27822,0.38122 0.53538,0.79826 0.81836,1.18164 v -88.75976 c -2.97126,-1.54497 -5.94869,-3.07662 -8.89453,-4.67383 -5.47141,-2.96623 -10.91718,-5.9929 -16.3457,-9.03906 -4.70233,-2.63677 -9.40008,-5.2902 -14.03516,-8.03711 -2.02558,-1.20093 -3.88443,-2.67725 -5.83789,-4.00586 -1.74192,-1.18532 -3.50715,-2.33809 -5.26953,-3.51563 1.26817,-1.57425 2.49288,-2.83568 3.40234,-4.28711 1.37639,-2.19911 1.8627,-4.59137 0.47852,-7.02148 -0.16376,-0.28659 -0.41359,-0.64099 -0.67969,-0.84375 -4.34264,-7.18215 -10.60293,-12.37659 -18.26758,-15.90039 -4.3748,-2.01196 -8.9353,-3.60858 -13.60351,-4.78125 -1.86961,-1.09759 -3.79851,-2.22362 -5.76368,-3.28516 -3.37758,-1.82867 -6.53062,-3.84085 -8.8457,-7.05078 -0.91413,-1.26787 -2.41225,-2.11318 -3.89844,-3.36523 v -0.002 c 0.003,-0.0457 -0.0635,-0.58126 -0.36328,-0.79296 -1.37248,-0.97768 -2.79763,-1.89045 -4.28515,-2.86133 -0.38892,-0.7915 -1.00535,-1.25073 -1.78907,-1.65235 -0.3977,-0.20277 -0.79566,-0.40858 -1.19726,-0.61132 -0.2233,-0.20661 -0.46039,-0.41348 -0.69922,-0.63282 -1.71464,-1.54696 -3.14921,-3.41828 -4.63672,-5.20312 -3.19728,-3.83378 -6.5201,-7.57668 -9.48633,-11.58594 -4.10868,-5.54746 -8.08211,-11.20591 -11.85156,-16.98828 -5.61179,-8.6102 -6.34637,-9.52843 -9.99219,-10.44922 -5.56402,-9.60839 -24.18761,-19.90256 -29.58008,-29.61523 -0.2925,-0.52691 -4.5876,-5.28354 -7.75781,-8.80469 z m 128.28516,131.76172 c 0.17684,-0.0103 0.35955,-0.009 0.54687,0.002 0.21405,0.0128 0.43401,0.0393 0.65625,0.0801 -0.50786,1.07811 -0.99639,2.10817 -1.69726,3.58398 -0.72328,-0.9426 -1.59672,-1.5657 -1.63086,-2.23828 -0.0462,-0.81945 0.88726,-1.364 2.125,-1.42773 z"
         style="stroke-width:0.974776"
         id="path252" />
      <path
         d="m 249.44727,172.43164 -13.62696,4.03125 c -0.0439,0.0149 1.46208,1.69303 3.38086,3.82422 z"
         style="stroke-width:0.974776"
         id="path251" />
      <g
         id="g125"
         transform="matrix(1.4031841,0,0,1.4031841,42.366821,46.103567)">
        <g
           id="layer2"
           style="display:inline"
           transform="matrix(2.5666308,0,0,2.5666308,-71.494213,-290.24955)">
          <g
             id="g401"
             transform="matrix(0.01827893,-0.03501435,0.03501435,0.01827893,39.501605,141.88306)">
            <path
               class="st0"
               d="M 423.29,90.281 C 398.149,53.719 351.306,0 280.071,0 c -39.609,0 -86.875,0 -86.875,0 -3.578,0 -6.484,2.906 -6.484,6.469 v 3.063 c 0,3.563 -2.891,6.469 -6.469,6.469 H 159.68 c -3.578,0 -6.469,-2.906 -6.469,-6.469 V 6.469 C 153.211,2.906 150.305,0 146.727,0 H 96.431 C 89.29,0 83.478,5.813 83.478,12.969 v 64.344 c 0,7.172 5.813,12.969 12.953,12.969 h 50.297 c 3.578,0 6.484,-2.906 6.484,-6.469 v -3.047 c 0,-3.578 2.891,-6.484 6.469,-6.484 h 20.563 c 3.578,0 6.469,2.906 6.469,6.484 v 9.516 52.578 h 91.438 v -26.656 c 0,-14.313 11.609,-25.922 25.906,-25.922 0,0 6.641,0 7.234,0 48,0 73.156,10.281 97.156,20.563 15.281,6.561 27.421,-6.845 14.843,-20.564 z"
               id="path397"
                />
            <path
               class="st0"
               d="m 266.056,512 c 5.234,0 10.234,-2.109 13.906,-5.844 3.656,-3.75 5.641,-8.813 5.531,-14.031 l -7.344,-321.844 h -91.438 l -7.328,321.844 c -0.125,5.219 1.875,10.281 5.531,14.031 3.656,3.734 8.672,5.844 13.891,5.844 z"
               id="path399"
                />
          </g>
          <g
             
             id="g461"
             transform="matrix(0.94083273,-0.58399528,0.58399528,0.94083273,37.637018,146.19728)">
            <path
               d="M 0,1 1,0 4.081,2.2 A 1,1 0 0 1 4.5,3.015 v 0.07 A 1,1 0 0 0 4.793,3.793 L 10.5,9.5 11.414,9.195 a 1,1 0 0 1 1.023,0.242 l 3.356,3.356 a 1,1 0 0 1 0,1.414 l -1.586,1.586 a 1,1 0 0 1 -1.414,0 L 9.437,12.437 A 1,1 0 0 1 9.195,11.414 L 9.5,10.5 3.793,4.793 A 1,1 0 0 0 3.086,4.5 H 3.015 A 1,1 0 0 1 2.201,4.081 Z m 11.354,9.646 a 0.5006316,0.5006316 0 0 0 -0.708,0.708 l 3,3 a 0.5006316,0.5006316 0 0 0 0.708,-0.708 z"
               id="path452" />
          </g>
          <g
             id="g636"
             transform="matrix(-0.04166864,-0.00854539,-0.00854539,0.04166864,82.607084,128.9564)">
            <path
               class="st0"
               d="m 50.448,345.976 c -13.915,13.916 -13.915,36.484 0,50.4 L 155.63,501.548 c 13.914,13.932 36.484,13.932 50.4,0.017 L 283.075,424.511 127.494,268.93 Z m 128.484,118.66 c -3.121,3.12 -8.209,3.137 -11.33,0.008 l -80.24,-80.24 c -3.129,-3.12 -3.12,-8.21 0,-11.338 l 33.504,-33.496 91.57,91.562 z"
               id="path632"
                />
            <polygon
               class="st0"
               points="428.661,158.891 414.078,129.38 452.548,115.004 437.965,85.493 471.988,75.571 396.416,0 141.566,254.858 275.516,388.809 309.193,378.369 294.619,348.841 333.105,334.456 318.514,304.929 357,290.552 342.401,261.042 380.887,246.665 366.288,217.163 404.782,202.786 390.174,173.26 "
               id="polygon634"
                />
          </g>
          <rect
             style="stroke-width:0.264583"
             id="rect699"
             width="7.3692088"
             height="8.4096546"
             x="68.85231"
             y="139.07687" />
          <rect
             style="stroke-width:0.264583"
             id="rect759"
             width="3.6762915"
             height="0.49399009"
             x="58.302654"
             y="153.34235" />
          <rect
             style="stroke-width:0.264583"
             id="rect753"
             width="4.4167218"
             height="2.8590093"
             x="75.807709"
             y="144.34819" />
          <rect
             style="stroke-width:0.264583"
             id="rect755"
             width="4.4204173"
             height="2.4673641"
             x="59.841522"
             y="143.61182" />
          <rect
             style="stroke-width:0.264583"
             id="rect757"
             width="3.5576894"
             height="2.7126966"
             x="65.770882"
             y="141.35358" />
        </g>
        <ellipse
           style="stroke-width:0.679087"
           id="path1028-3"
           cx="87.032829"
           cy="95.750481"
           rx="4.1275182"
           ry="3.1474404" />
        <path
           d="m 61.763672,38.994141 c 0.231023,0.962102 0.229953,1.525173 0.480469,1.939453 3.010111,4.995741 6.236509,9.775945 10.599609,13.800781 4.339706,4.004406 9.107451,7.375259 13.919922,10.724609 4.323133,3.006192 8.58318,6.104047 12.941406,9.0625 2.223462,1.511874 4.581402,2.823767 6.904302,4.183594 3.671,2.151324 7.35054,4.293893 11.05273,6.390625 1.06153,0.600463 2.21877,1.035248 3.30078,1.611328 -2.55392,-1.002064 -5.14229,-1.916103 -7.64844,-3.033203 -4.31533,-1.925178 -8.56937,-3.974377 -12.85351,-5.970703 -6.82831,-3.177771 -13.574229,-6.559086 -20.505862,-9.486328 -9.57718,-4.036566 -19.28824,-7.751082 -28.964844,-11.544922 -1.133665,-0.445464 -2.405565,-0.561798 -3.630859,-0.716797 -0.437675,-0.05544 -0.914908,0.21906 -1.376953,0.341797 0.147197,0.508808 0.154885,1.138372 0.46875,1.507812 0.719386,0.850967 1.551365,1.62048 2.402344,2.347657 6.263914,5.353479 13.322279,9.367613 20.791015,12.808593 6.21225,2.863872 12.203628,6.196956 18.339844,9.220704 2.108441,1.03815 4.373156,1.753516 6.564453,2.617187 -0.03996,0.158875 -0.08309,0.313782 -0.126953,0.472656 -0.433776,-0.103435 -0.874798,-0.179925 -1.296875,-0.30664 -10.319958,-3.158265 -20.59617,-6.46146 -30.976563,-9.41211 -4.462526,-1.269147 -9.12658,-1.869573 -13.720703,-2.632812 -0.858776,-0.145272 -1.829806,0.380265 -2.748047,0.599609 0.48544,0.772017 0.851753,1.664207 1.488282,2.28125 0.795417,0.772017 1.774224,1.373108 2.736328,1.945313 10.121103,6.005582 21.173266,9.898478 32.058594,14.185547 2.370656,0.934792 4.743606,1.869864 7.117187,2.800781 -0.05167,0.187107 -0.102636,0.373389 -0.158203,0.560547 -0.946507,-0.170681 -1.889428,-0.339188 -2.835938,-0.509766 -5.854505,-1.042052 -11.69631,-2.152089 -17.570312,-3.082031 -1.284755,-0.202764 -2.680151,0.148803 -4,0.375 -0.532227,0.09163 -1.002564,0.532156 -1.869141,1.021484 1.543071,1.237013 2.661748,2.497361 4.0625,3.189453 6.296081,3.122204 12.665929,6.080711 19.013672,9.099611 0.273913,0.13167 0.536782,0.29918 0.890625,0.49414 -1.558668,0.41331 -2.964878,0.78694 -4.583984,1.2168 3.8182,5.18582 8.935969,8.07476 13.96289,11.03711 1.193127,0.70377 2.728931,0.79498 4.021483,1.36328 0.88315,0.38992 1.61378,1.11631 2.41602,1.69726 -1.14981,1.49236 -1.20796,2.64135 -0.27344,3.85547 l 67.41992,-0.72464 c -2.18763,-1.79045 -23.97638,-38.575958 -26.08398,-40.470671 -5.3369,-4.796879 -10.68042,-9.593065 -15.87891,-14.541016 -3.8143,-3.631039 -7.43148,-7.476705 -11.07812,-11.279297 -4.97526,-5.185827 -9.88997,-10.427491 -14.85743,-15.621094 -0.50883,-0.533192 -1.19251,-0.904119 -1.796871,-1.349609 -0.170578,0.08778 -0.343086,0.172064 -0.513672,0.259766 0.131591,0.827585 0.107022,1.717189 0.417969,2.46875 2.311194,5.60008 4.323564,11.395417 8.232424,16.144531 3.16607,3.84548 6.32701,7.763972 9.97461,11.125 5.50359,5.066889 11.42751,9.678746 17.16992,14.486328 0.31777,0.266134 0.59593,0.57333 0.71875,1.146484 -0.42598,-0.166573 -0.89133,-0.275847 -1.27734,-0.513671 -7.88594,-4.892409 -15.82386,-9.702603 -23.62305,-14.738282 -6.4228,-4.143774 -12.713643,-8.500193 -18.986329,-12.867187 -4.147673,-2.88728 -8.077984,-6.092106 -12.265625,-8.916016 -4.883628,-3.292808 -9.93104,-6.343596 -14.933594,-9.449219 -0.774948,-0.481551 -1.719201,-0.699183 -3.03125,-1.216796 z"
           style="stroke-width:0.974776"
           id="path123" />
        <rect
           style="stroke-width:0.695456"
           id="rect918"
           width="16.630508"
           height="14.542729"
           x="121.48566"
           y="79.284752" />
        <rect
           style="stroke-width:0.679087"
           id="rect972"
           width="9.0089426"
           height="1.9497248"
           x="89.439644"
           y="84.246544" />
        <ellipse
           style="stroke-width:0.679087"
           id="path1028"
           cx="82.627701"
           cy="105.1282"
           rx="4.5517521"
           ry="3.1474404" />
      </g>
    </g>
  </g>
</svg>
